<svg xmlns="http://www.w3.org/2000/svg" viewBox="0 0 180 180">
  <rect width="180" height="180" rx="40" fill="#1C2E4A"/>
  <path d="M48 50h84v19h-5c-1.9-6.1-4.5-10.1-7.8-12-3.1-1.9-8.1-2.9-14.6-2.9h-4.5v73.4c0 5.6.9 9.2 2.8 10.8 1.9 1.7 5.9 2.6 12.1 2.8v4.5H65v-4.5c6.2-.3 10.1-1.3 11.8-3.1 1.7-1.7 2.5-5.7 2.5-11.8V54.1h-4.5c-6.4 0-11.3 1-14.6 2.9-3.1 1.9-5.9 5.9-7.8 12H48V50Z" fill="#F4F2ED"/>
  <path d="M126 126c13.5 0 21.9-5.9 25.3-17.4 2 16.6-6.5 28.1-25.3 34.3-18.8-6.2-27.3-17.7-25.3-34.3 3.4 11.5 11.8 17.4 25.3 17.4Z" fill="#D8B7B1"/>
</svg>
